<?xml version="1.0" encoding="iso-8859-1"?>
<!-- Generator: Adobe Illustrator 19.0.0, SVG Export Plug-In . SVG Version: 6.00 Build 0)  -->
<svg fill="#ad9960" version="1.1" id="Capa_1" xmlns="http://www.w3.org/2000/svg" xmlns:xlink="http://www.w3.org/1999/xlink" x="0px" y="0px"
	 viewBox="0 0 512 512" style="enable-background:new 0 0 512 512;" xml:space="preserve">
<g>
	<g>
		<path d="M0,181.333V320c0,29.397,23.936,53.333,53.333,53.333H288c5.888,0,10.667-4.779,10.667-10.667v-85.333
			c0-14.699,9.963-27.477,24.235-31.061l85.333-21.333c5.099-1.28,10.453-1.259,15.531,0l32.32,8.085
			c3.2,0.832,6.549,0.085,9.152-1.941c2.603-2.027,4.096-5.12,4.096-8.405v-41.344H0z M74.667,245.333H160
			c5.888,0,10.667,4.779,10.667,10.667s-4.779,10.667-10.667,10.667H74.667C68.779,266.667,64,261.888,64,256
			S68.779,245.333,74.667,245.333z M224,309.333H74.667c-5.888,0-10.667-4.779-10.667-10.667S68.779,288,74.667,288H224
			c5.888,0,10.667,4.779,10.667,10.667S229.888,309.333,224,309.333z"/>
	</g>
</g>
<g>
	<g>
		<path d="M416,32H53.333C23.936,32,0,55.936,0,85.333V96h469.333V85.333C469.333,55.936,445.397,32,416,32z"/>
	</g>
</g>
<g>
	<g>
		<rect y="117.333" width="469.333" height="42.667"/>
	</g>
</g>
<g>
	<g>
		<path d="M503.915,266.987l-85.333-21.333c-1.685-0.448-3.477-0.448-5.163,0l-85.333,21.333c-4.757,1.195-8.085,5.461-8.085,10.347
			v128c0,33.003,70.336,64.875,91.904,73.835c1.323,0.555,2.709,0.832,4.096,0.832c1.387,0,2.795-0.277,4.096-0.832
			c21.568-8.96,91.904-40.832,91.904-73.835v-128C512,272.448,508.672,268.181,503.915,266.987z M469.333,396.48
			c0,3.029-1.28,5.888-3.52,7.936c-8.384,7.552-25.664,18.133-45.12,27.648c-1.472,0.725-3.093,1.088-4.693,1.088
			c-1.963,0-3.925-0.533-5.653-1.621c-3.115-1.941-5.013-5.376-5.013-9.045v-49.152h-32c-5.888,0-10.667-4.779-10.667-10.667
			v-52.011c0-4.885,3.328-9.152,8.085-10.347l42.667-10.667c3.157-0.832,6.549-0.085,9.152,1.941
			c2.581,2.005,4.096,5.12,4.096,8.405V352h32c5.888,0,10.667,4.779,10.667,10.667V396.48z"/>
	</g>
</g>
</svg>
