<?xml version="1.0" encoding="iso-8859-1"?>
<!-- Generator: Adobe Illustrator 19.0.0, SVG Export Plug-In . SVG Version: 6.00 Build 0)  -->
<svg version="1.1" id="Capa_1" xmlns="http://www.w3.org/2000/svg" xmlns:xlink="http://www.w3.org/1999/xlink" x="0px" y="0px"
	 viewBox="0 0 512 512" style="enable-background:new 0 0 512 512;" xml:space="preserve">
<g>
	<g>
		<path d="M224,298.667V352c0,5.888,4.779,10.667,10.667,10.667h42.667c5.888,0,10.667-4.779,10.667-10.667v-53.333H224z"/>
	</g>
</g>
<g>
	<g>
		<rect x="160" y="469.333" width="192" height="42.667"/>
	</g>
</g>
<g>
	<g>
		<path d="M352,149.333v117.333c0,17.643-14.357,32-32,32h-10.667V352c0,17.643-14.357,32-32,32h-10.667v32
			c0,5.888-4.779,10.667-10.667,10.667s-10.667-4.779-10.667-10.667v-32h-10.667c-17.643,0-32-14.357-32-32v-53.333H192
			c-17.643,0-32-14.357-32-32V149.333H10.667v352c0,5.888,4.779,10.667,10.667,10.667h117.333v-53.333
			c0-5.888,4.779-10.667,10.667-10.667h213.333c5.888,0,10.667,4.779,10.667,10.667V512h117.333c5.888,0,10.667-4.779,10.667-10.667
			v-352H352z"/>
	</g>
</g>
<g>
	<g>
		<path d="M490.667,64H480v32c0,5.888-4.779,10.667-10.667,10.667S458.667,101.888,458.667,96V64h-21.333v32
			c0,5.888-4.779,10.667-10.667,10.667C420.779,106.667,416,101.888,416,96V64h-21.333v32c0,5.888-4.779,10.667-10.667,10.667
			c-5.888,0-10.667-4.779-10.667-10.667V64h-22.421c0.704,3.456,1.088,7.019,1.088,10.667V128h149.333V74.667
			C501.333,68.779,496.555,64,490.667,64z"/>
	</g>
</g>
<g>
	<g>
		<path d="M308.416,44.352C304.128,19.221,282.325,0,256,0c-26.325,0-48.128,19.221-52.416,44.352
			c-12.864,4.16-22.251,16.085-22.251,30.315v192c0,5.888,4.779,10.667,10.667,10.667h128c5.888,0,10.667-4.779,10.667-10.667v-192
			C330.667,60.437,321.28,48.512,308.416,44.352z M256,21.333c13.909,0,25.771,8.917,30.187,21.333h-60.352
			C230.229,30.251,242.091,21.333,256,21.333z M277.333,234.667h-42.667c-5.888,0-10.667-4.779-10.667-10.667
			s4.779-10.667,10.667-10.667h42.667c5.888,0,10.667,4.779,10.667,10.667S283.221,234.667,277.333,234.667z M277.333,192h-42.667
			c-5.888,0-10.667-4.779-10.667-10.667s4.779-10.667,10.667-10.667h42.667c5.888,0,10.667,4.779,10.667,10.667
			S283.221,192,277.333,192z M277.333,149.333h-42.667c-5.888,0-10.667-4.779-10.667-10.667S228.779,128,234.667,128h42.667
			c5.888,0,10.667,4.779,10.667,10.667S283.221,149.333,277.333,149.333z M277.333,106.667h-42.667
			C228.779,106.667,224,101.888,224,96s4.779-10.667,10.667-10.667h42.667C283.221,85.333,288,90.112,288,96
			S283.221,106.667,277.333,106.667z"/>
	</g>
</g>
<g>
	<g>
		<path d="M138.667,64v32c0,5.888-4.779,10.667-10.667,10.667S117.333,101.888,117.333,96V64H96v32
			c0,5.888-4.779,10.667-10.667,10.667S74.667,101.888,74.667,96V64H53.333v32c0,5.888-4.779,10.667-10.667,10.667S32,101.888,32,96
			V64H21.333c-5.888,0-10.667,4.779-10.667,10.667V128H160V74.667c0-3.648,0.384-7.211,1.088-10.667H138.667z"/>
	</g>
</g>
<g>
</g>
<g>
</g>
<g>
</g>
<g>
</g>
<g>
</g>
<g>
</g>
<g>
</g>
<g>
</g>
<g>
</g>
<g>
</g>
<g>
</g>
<g>
</g>
<g>
</g>
<g>
</g>
<g>
</g>
</svg>
